name analog
datacolumns 19
datarows 61
range 0.0 0.03
endheader
time	ground_force_vx	ground_force_vy	ground_force_vz	ground_force_px	ground_force_py	ground_force_pz	l_ground_force_vx	l_ground_force_vy	l_ground_force_vz	l_ground_force_px	l_ground_force_py	l_ground_force_pz	ground_torque_x	ground_torque_y	ground_torque_z	l_ground_torque_x	l_ground_torque_y	l_ground_torque_z
0.0	-0.0	-0.0	-0.0	-13.921881675720217	-0.1984119564294815	-772.4244995117188	-0.0	-0.0	-0.0	-34.72969436645508	16.44950294494629	74.73338317871094	-0.0	-0.0	-0.0	-0.0	-0.0	-0.0
0.0005	-0.0	-0.0	-0.0	-14.734747886657717	1.0745649337768557	-772.8369140625	-0.0	-0.0	-0.0	-34.56045150756836	16.169822692871094	75.5125503540039	-0.0	-0.0	-0.0	-0.0	-0.0	-0.0
0.001	-0.0	-0.0	-0.0	-15.78527545928955	1.866758227348328	-778.8406372070312	-0.0	-0.0	-0.0	-34.714778900146484	15.929547309875488	76.04141235351562	-0.0	-0.0	-0.0	-0.0	-0.0	-0.0
0.0015	-0.0	-0.0	-0.0	-15.795207023620604	2.4411184787750244	-780.3115234375	-0.0	-0.0	-0.0	-34.550392150878906	16.199419021606445	76.82041931152344	-0.0	-0.0	-0.0	-0.0	-0.0	-0.0
0.002	-0.0	-0.0	-0.0	-16.429462432861328	3.579930543899536	-784.0400390625	-0.0	-0.0	-0.0	-35.13790512084961	15.764070510864258	76.76399993896484	-0.0	-0.0	-0.0	-0.0	-0.0	-0.0
0.0025	-0.0	-0.0	-0.0	-17.39604949951172	3.7031660079956055	-787.16064453125	-0.0	-0.0	-0.0	-34.55974197387695	16.28932762145996	74.7528076171875	-0.0	-0.0	-0.0	-0.0	-0.0	-0.0
0.003	-0.0	-0.0	-0.0	-18.3482723236084	4.302480697631836	-790.3399658203125	-0.0	-0.0	-0.0	-34.8840446472168	16.213674545288086	76.1566162109375	-0.0	-0.0	-0.0	-0.0	-0.0	-0.0
0.0035	-0.0	-0.0	-0.0	-19.02108192443848	4.762364387512207	-789.433349609375	-0.0	-0.0	-0.0	-34.728763580322266	16.000354766845703	76.11958312988281	-0.0	-0.0	-0.0	-0.0	-0.0	-0.0
0.004	-0.0	-0.0	-0.0	-20.03400230407715	5.629588127136231	-791.7345581054688	-0.0	-0.0	-0.0	-34.64865493774414	16.18507194519043	77.06182861328125	-0.0	-0.0	-0.0	-0.0	-0.0	-0.0
0.0045000000000000005	-0.0	-0.0	-0.0	-19.65010070800781	5.966983795166016	-791.885986328125	-0.0	-0.0	-0.0	-35.21397018432617	15.782231330871582	74.10582733154297	-0.0	-0.0	-0.0	-0.0	-0.0	-0.0
0.005	-0.0	-0.0	-0.0	-19.99259376525879	6.332973957061768	-793.4645385742188	-0.0	-0.0	-0.0	-34.88880157470703	16.36981773376465	74.10537719726562	-0.0	-0.0	-0.0	-0.0	-0.0	-0.0
0.0055	-0.0	-0.0	-0.0	-20.68275260925293	6.347021579742432	-791.550537109375	-0.0	-0.0	-0.0	-35.115745544433594	15.943145751953123	75.76954650878906	-0.0	-0.0	-0.0	-0.0	-0.0	-0.0
0.006	-0.0	-0.0	-0.0	-20.26010131835937	6.285658836364746	-793.5953369140625	-0.0	-0.0	-0.0	-34.562931060791016	16.18994140625	76.12078857421875	-0.0	-0.0	-0.0	-0.0	-0.0	-0.0
0.006500000000000001	-0.0	-0.0	-0.0	-20.504558563232425	6.863040924072266	-792.5723266601562	-0.0	-0.0	-0.0	-34.89332962036133	16.810659408569336	75.17481994628906	-0.0	-0.0	-0.0	-0.0	-0.0	-0.0
0.007	-0.0	-0.0	-0.0	-19.72010612487793	6.8013834953308105	-791.8839111328125	-0.0	-0.0	-0.0	-35.04975509643555	15.672784805297852	74.8056640625	-0.0	-0.0	-0.0	-0.0	-0.0	-0.0
0.0075	-0.0	-0.0	-0.0	-19.94664192199707	7.665214538574219	-792.5357666015625	-0.0	-0.0	-0.0	-34.47282028198242	16.194534301757812	74.48958587646484	-0.0	-0.0	-0.0	-0.0	-0.0	-0.0
0.008	-0.0	-0.0	-0.0	-19.091049194335938	8.271038055419922	-793.9305419921875	-0.0	-0.0	-0.0	-34.80377960205078	16.532114028930664	76.80632781982422	-0.0	-0.0	-0.0	-0.0	-0.0	-0.0
0.0085	-0.0	-0.0	-0.0	-18.997350692749023	8.65013313293457	-794.84814453125	-0.0	-0.0	-0.0	-35.07211685180664	16.29776954650879	75.13825988769531	-0.0	-0.0	-0.0	-0.0	-0.0	-0.0
0.009000000000000001	-0.0	-0.0	-0.0	-18.636062622070312	9.54141616821289	-791.84716796875	-0.0	-0.0	-0.0	-34.71426010131836	16.117765426635742	75.52336883544922	-0.0	-0.0	-0.0	-0.0	-0.0	-0.0
0.0095	-0.0	-0.0	-0.0	-17.53903579711914	10.593241691589355	-789.975830078125	-0.0	-0.0	-0.0	-35.165855407714844	16.352663040161133	74.41886901855469	-0.0	-0.0	-0.0	-0.0	-0.0	-0.0
0.01	-0.0	-0.0	-0.0	-17.12841796875	10.922174453735352	-787.90966796875	-0.0	-0.0	-0.0	-34.90169906616211	16.267208099365234	76.80791473388672	-0.0	-0.0	-0.0	-0.0	-0.0	-0.0
0.0105	-0.0	-0.0	-0.0	-17.195772171020508	12.491357803344728	-783.7582397460938	-0.0	-0.0	-0.0	-34.69276809692383	16.288806915283203	76.74101257324219	-0.0	-0.0	-0.0	-0.0	-0.0	-0.0
0.011	-0.0	-0.0	-0.0	-17.280838012695312	13.476009368896484	-781.9061279296875	-0.0	-0.0	-0.0	-34.62467193603516	16.383005142211914	75.8056640625	-0.0	-0.0	-0.0	-0.0	-0.0	-0.0
0.0115	-0.0	-0.0	-0.0	-16.835010528564453	15.215546607971191	-777.6342163085938	-0.0	-0.0	-0.0	-34.795143127441406	15.675853729248049	76.17310333251953	-0.0	-0.0	-0.0	-0.0	-0.0	-0.0
0.012	-0.0	-0.0	-0.0	-17.132692337036133	15.754730224609377	-772.0175170898438	-0.0	-0.0	-0.0	-35.055171966552734	15.855683326721191	74.14933013916016	-0.0	-0.0	-0.0	-0.0	-0.0	-0.0
0.0125	-0.0	-0.0	-0.0	-17.306838989257812	16.22173309326172	-767.4431762695312	-0.0	-0.0	-0.0	-34.55997467041016	15.932960510253906	76.47505187988281	-0.0	-0.0	-0.0	-0.0	-0.0	-0.0
0.013000000000000001	-0.0	-0.0	-0.0	-17.40024757385254	16.748125076293945	-762.4656372070312	-0.0	-0.0	-0.0	-34.965946197509766	16.46031379699707	74.1153335571289	-0.0	-0.0	-0.0	-0.0	-0.0	-0.0
0.0135	-0.0	-0.0	-0.0	-17.727827072143555	16.59494972229004	-758.4981689453125	-0.0	-0.0	-0.0	-34.547306060791016	16.11688995361328	75.4547119140625	-0.0	-0.0	-0.0	-0.0	-0.0	-0.0
0.014	-0.0	-0.0	-0.0	-18.35252571105957	15.95020580291748	-751.8709106445312	-0.0	-0.0	-0.0	-34.73821258544922	16.08014488220215	77.19359588623047	-0.0	-0.0	-0.0	-0.0	-0.0	-0.0
0.0145	-0.0	-0.0	-0.0	-19.107458114624023	15.05484104156494	-746.4600219726562	-0.0	-0.0	-0.0	-34.950199127197266	16.452346801757812	76.79560852050781	-0.0	-0.0	-0.0	-0.0	-0.0	-0.0
0.015	-0.0	-0.0	-0.0	-19.966894149780277	14.58895492553711	-738.1300048828125	-0.0	-0.0	-0.0	-35.13732147216797	15.768654823303224	74.83071899414062	-0.0	-0.0	-0.0	-0.0	-0.0	-0.0
0.0155	-0.0	-0.0	-0.0	-21.05772399902344	13.45465087890625	-731.3716430664062	-0.0	-0.0	-0.0	-34.54281997680664	16.026512145996094	75.5011978149414	-0.0	-0.0	-0.0	-0.0	-0.0	-0.0
0.016	-0.0	-0.0	-0.0	-22.034996032714844	12.478256225585938	-723.2014770507812	-0.0	-0.0	-0.0	-34.70206069946289	16.374473571777344	75.86705780029297	-0.0	-0.0	-0.0	-0.0	-0.0	-0.0
0.0165	-0.0	-0.0	-0.0	-23.03614997863769	11.275954246520996	-713.4548950195312	-0.0	-0.0	-0.0	-34.70988464355469	15.861932754516602	75.51551055908203	-0.0	-0.0	-0.0	-0.0	-0.0	-0.0
0.017	-0.0	-0.0	-0.0	-24.982887268066406	9.61031723022461	-711.5170288085938	-0.0	-0.0	-0.0	-34.706031799316406	16.104564666748047	77.1943588256836	-0.0	-0.0	-0.0	-0.0	-0.0	-0.0
0.0175	-0.0	-0.0	-0.0	-26.38677406311035	8.820006370544434	-703.995849609375	-0.0	-0.0	-0.0	-34.88117218017578	16.355295181274414	75.17857360839844	-0.0	-0.0	-0.0	-0.0	-0.0	-0.0
0.018000000000000002	-0.0	-0.0	-0.0	-26.79024124145508	8.36279296875	-702.4595336914062	-0.0	-0.0	-0.0	-34.54607009887695	15.932220458984377	76.82889556884766	-0.0	-0.0	-0.0	-0.0	-0.0	-0.0
0.0185	-0.0	-0.0	-0.0	-28.198211669921875	6.510361194610596	-701.476318359375	-0.0	-0.0	-0.0	-34.88880157470703	16.441804885864258	77.12116241455078	-0.0	-0.0	-0.0	-0.0	-0.0	-0.0
0.019	-0.0	-0.0	-0.0	-29.784887313842773	5.41412878036499	-705.3304443359375	-0.0	-0.0	-0.0	-34.71731185913086	16.28076934814453	76.12747955322266	-0.0	-0.0	-0.0	-0.0	-0.0	-0.0
0.0195	-0.0	-0.0	-0.0	-29.89683151245117	4.192895412445068	-709.9066772460938	-0.0	-0.0	-0.0	-34.974586486816406	16.36707878112793	77.13735961914062	-0.0	-0.0	-0.0	-0.0	-0.0	-0.0
0.02	-0.0	-0.0	-0.0	-30.063941955566406	3.669347524642944	-715.1893310546875	-0.0	-0.0	-0.0	-34.88880157470703	16.363431930541992	75.23297882080078	-0.0	-0.0	-0.0	-0.0	-0.0	-0.0
0.0205	-0.0	-0.0	-0.0	-29.70709991455078	4.389665126800537	-723.9600830078125	-0.0	-0.0	-0.0	-35.24663543701172	16.01095199584961	74.10774230957031	-0.0	-0.0	-0.0	-0.0	-0.0	-0.0
0.021	-0.0	-0.0	-0.0	-28.885814666748047	5.604190349578857	-729.7135009765625	-0.0	-0.0	-0.0	-35.07847213745117	15.849074363708496	75.14594268798828	-0.0	-0.0	-0.0	-0.0	-0.0	-0.0
0.021500000000000002	-0.0	-0.0	-0.0	-27.848299026489254	5.982692241668701	-738.5137329101562	-0.0	-0.0	-0.0	-35.08908462524414	16.104564666748047	75.11772918701172	-0.0	-0.0	-0.0	-0.0	-0.0	-0.0
0.022	-0.0	-0.0	-0.0	-27.347835540771484	6.606492042541504	-744.2074584960938	-0.0	-0.0	-0.0	-34.813438415527344	16.36384391784668	75.88859558105469	-0.0	-0.0	-0.0	-0.0	-0.0	-0.0
0.0225	-0.0	-0.0	-0.0	-25.81377220153809	7.568931102752685	-750.5923461914062	-0.0	-0.0	-0.0	-35.146724700927734	16.374473571777344	76.1292724609375	-0.0	-0.0	-0.0	-0.0	-0.0	-0.0
0.023	-0.0	-0.0	-0.0	-23.705198287963867	8.8168306350708	-755.5079956054688	-0.0	-0.0	-0.0	-34.537864685058594	16.007659912109375	75.07670593261719	-0.0	-0.0	-0.0	-0.0	-0.0	-0.0
0.0235	-0.0	-0.0	-0.0	-21.578384399414062	9.633115768432615	-760.05712890625	-0.0	-0.0	-0.0	-34.8853759765625	16.27761459350586	75.11719512939453	-0.0	-0.0	-0.0	-0.0	-0.0	-0.0
0.024	-0.0	-0.0	-0.0	-19.79776954650879	10.346083641052246	-764.3089599609375	-0.0	-0.0	-0.0	-34.70649719238281	16.350627899169922	74.7528076171875	-0.0	-0.0	-0.0	-0.0	-0.0	-0.0
0.0245	-0.0	-0.0	-0.0	-17.90031623840332	10.702529907226562	-766.3869018554688	-0.0	-0.0	-0.0	-34.80939483642578	16.118038177490234	75.41529083251953	-0.0	-0.0	-0.0	-0.0	-0.0	-0.0
0.025	-0.0	-0.0	-0.0	-16.140260696411133	11.137882232666016	-766.0743408203125	-0.0	-0.0	-0.0	-34.71986389160156	15.85806941986084	75.84480285644531	-0.0	-0.0	-0.0	-0.0	-0.0	-0.0
0.025500000000000002	-0.0	-0.0	-0.0	-14.963685035705566	10.857009887695312	-767.1336059570312	-0.0	-0.0	-0.0	-34.80921173095703	16.191226959228516	75.81856536865234	-0.0	-0.0	-0.0	-0.0	-0.0	-0.0
0.026000000000000002	-0.0	-0.0	-0.0	-13.176393508911133	9.807686805725098	-768.2061157226562	-0.0	-0.0	-0.0	-35.07096862792969	16.2043399810791	75.44196319580078	-0.0	-0.0	-0.0	-0.0	-0.0	-0.0
0.0265	-0.0	-0.0	-0.0	-11.412294387817385	9.804344177246094	-771.6849365234375	-0.0	-0.0	-0.0	-34.63981246948242	16.201032638549805	75.103759765625	-0.0	-0.0	-0.0	-0.0	-0.0	-0.0
0.027	-0.0	-0.0	-0.0	-10.15684700012207	9.546807289123535	-773.84326171875	-0.0	-0.0	-0.0	-34.80892562866211	16.197744369506836	74.76533508300781	-0.0	-0.0	-0.0	-0.0	-0.0	-0.0
0.0275	-0.0	-0.0	-0.0	-9.073472023010254	9.104289054870604	-775.6217041015625	-0.0	-0.0	-0.0	-34.62042999267578	15.847346305847168	76.16899108886719	-0.0	-0.0	-0.0	-0.0	-0.0	-0.0
0.028	-0.0	-0.0	-0.0	-7.222815990447998	8.741244316101074	-780.212890625	-0.0	-0.0	-0.0	-34.88252258300781	15.673664093017578	76.44597625732422	-0.0	-0.0	-0.0	-0.0	-0.0	-0.0
0.0285	-0.0	-0.0	-0.0	-6.505971908569336	7.837085723876953	-782.6593627929688	-0.0	-0.0	-0.0	-35.13856887817383	16.023954391479492	76.09576416015625	-0.0	-0.0	-0.0	-0.0	-0.0	-0.0
0.029	-0.0	-0.0	-0.0	-5.954984664916992	7.321321487426758	-786.20361328125	-0.0	-0.0	-0.0	-34.89186477661133	16.52975845336914	76.79840850830078	-0.0	-0.0	-0.0	-0.0	-0.0	-0.0
0.029500000000000002	-0.0	-0.0	-0.0	-5.524771213531494	6.8693156242370605	-788.9915771484375	-0.0	-0.0	-0.0	-34.96913146972656	16.36528778076172	75.15153503417969	-0.0	-0.0	-0.0	-0.0	-0.0	-0.0
0.03	-0.0	-0.0	-0.0	-5.955386638641357	7.022703647613525	-789.6611938476562	-0.0	-0.0	-0.0	-34.972251892089844	16.266359329223633	74.44903564453125	-0.0	-0.0	-0.0	-0.0	-0.0	-0.0
